<?xml version="1.0" encoding="UTF-8"?>
<svg id="Ebene_1" data-name="Ebene 1" xmlns="http://www.w3.org/2000/svg" viewBox="338 146 165 165">
  <defs>
    <style>
      .cls-1 {
        fill: #1f3c90;
      }
    </style>
  </defs>
  <g>
    <path class="cls-1" d="M389.12,226.12h.38l32.14-40.49h67.01c-14.14-22.51-39.17-37.48-67.7-37.48-11.31,0-22.07,2.37-31.83,6.61v71.36Z"/>
    <path class="cls-1" d="M469.72,198.87v71.63l-16.95-18.54v-53.09h-22.33l-22.18,28.06,60.49,65.17c19.49-14.57,32.1-37.83,32.1-64.04,0-10.31-1.97-20.15-5.52-29.19h-25.61Z"/>
    <path class="cls-1" d="M389.12,230.26v43.06h-16.95v-108.54c-18.93,14.61-31.14,37.52-31.14,63.28,0,44.14,35.78,79.91,79.91,79.91,12.09,0,23.54-2.7,33.82-7.5l-65.64-70.21Z"/>
  </g>
</svg>