<svg xmlns="http://www.w3.org/2000/svg" viewBox="318 126 205 205">
  <rect x="318" y="126" width="205" height="205" rx="30" fill="#0f0c09"/>
  <g transform="translate(338 146)">
    <path fill="#b8946a" d="M51.12,80.12h.38l32.14-40.49h67.01c-14.14-22.51-39.17-37.48-67.7-37.48-11.31,0-22.07,2.37-31.83,6.61v71.36Z"/>
    <path fill="#b8946a" d="M131.72,52.87v71.63l-16.95-18.54v-53.09h-22.33l-22.18,28.06,60.49,65.17c19.49-14.57,32.1-37.83,32.1-64.04,0-10.31-1.97-20.15-5.52-29.19h-25.61Z"/>
    <path fill="#b8946a" d="M51.12,84.26v43.06h-16.95v-108.54c-18.93,14.61-31.14,37.52-31.14,63.28,0,44.14,35.78,79.91,79.91,79.91,12.09,0,23.54-2.7,33.82-7.5l-65.64-70.21Z"/>
  </g>
</svg>
